<svg width="1154" height="1154" viewBox="0 0 1154 1154" fill="none"
    xmlns="http://www.w3.org/2000/svg">
    <rect width="1154" height="1154" rx="200" fill="#0057FF" />
    <path
        d="M274.7 332.2C274.7 293.5 305.3 262.9 344 262.9C381.8 262.9 413.3 293.5 413.3 332.2V823.6C413.3 861.4 381.8 892 344 892C305.3 892 274.7 861.4 274.7 823.6V332.2ZM697.468 551.8H548.968C512.068 551.8 484.168 522.1 484.168 487.9C484.168 451.9 512.068 423.1 548.968 423.1H836.068C893.668 423.1 921.568 489.7 882.868 532.9L686.668 764.2H841.468C875.668 764.2 904.468 793 904.468 829C904.468 864.1 875.668 892.9 841.468 892.9H548.968C495.868 892.9 463.468 829 500.368 786.7L697.468 551.8ZM611.068 329.5L706.468 274.6C718.168 266.5 732.568 262.9 746.068 262.9C764.068 262.9 782.068 271 791.068 290.8C804.568 319.6 789.268 354.7 756.868 363.7L643.468 389.8C638.068 391.6 633.568 392.5 628.168 392.5C613.768 392.5 602.968 384.4 596.668 372.7C589.468 359.2 592.168 340.3 611.068 329.5Z"
        fill="white" />
</svg>